<?xml version="1.0" encoding="UTF-8"?><svg xmlns="http://www.w3.org/2000/svg" width="512" height="512" xmlns:xlink="http://www.w3.org/1999/xlink" viewBox="0 0 512 512"><defs><symbol id="Favicon.Design.01" viewBox="0 0 1024 1024"><rect width="1024" height="1024" fill="none" stroke-width="0"/><path d="m620.53,416.73l-82.66,82.66c-14.28,14.28-37.44,14.28-51.72,0l-83.86-83.86h.6c-60.43-60.43-60.43-158.41,0-218.84s151.2-60.35,211.98-6.46c66.91,59.32,68.89,163.27,5.66,226.5Z" fill="#d64545" stroke-width="0"/><path d="m670.26,494.32l-114.83,21.88c-19.84,3.78-32.86,22.93-29.08,42.77l22.19,116.5.34-.5c15.99,83.95,97.01,139.04,180.97,123.05,80.84-15.4,134.92-91.1,124.54-171.66-11.44-88.69-96.28-148.78-184.12-132.04Z" fill="#3baf75" stroke-width="0"/><path d="m350.06,495.12l114.83,21.88c19.84,3.78,32.86,22.93,29.08,42.77l-22.19,116.5-.34-.5c-15.99,83.95-97.01,139.04-180.97,123.05-80.84-15.4-134.92-91.1-124.54-171.66,11.44-88.69,96.28-148.78,184.12-132.04Z" fill="#3f7dff" stroke-width="0"/></symbol><symbol id="FaviconBackground01" viewBox="0 0 1024 1024"><rect x="0" width="1024" height="1024" rx="203.26" ry="203.26" fill="#231f20" stroke-width="0"/></symbol></defs><g id="Lock_-_FAVICON_Background_Color"><use width="1024" height="1024" transform="translate(0) scale(.5)" xlink:href="#FaviconBackground01"/></g><g id="Lock_-_FAVICON_Design"><use width="1024" height="1024" transform="scale(.5)" xlink:href="#Favicon.Design.01"/></g></svg>